<svg xmlns="http://www.w3.org/2000/svg" xmlns:xlink="http://www.w3.org/1999/xlink" viewBox="0 0 1627.37 325.2"><defs><style>.cls-1{fill:#383838;}.cls-2{opacity:0.4;}.cls-3{fill:url(#linear-gradient);}.cls-4{fill:url(#linear-gradient-2);}.cls-5{fill:url(#linear-gradient-4);}.cls-6{fill:url(#linear-gradient-5);}</style><linearGradient id="linear-gradient" x1="235.98" y1="152.33" x2="-2.14" y2="152.33" gradientUnits="userSpaceOnUse"><stop offset="0" stop-color="#d53c97"/><stop offset="0.52" stop-color="#ac1bb5"/><stop offset="1" stop-color="#8934d9"/></linearGradient><linearGradient id="linear-gradient-2" x1="235.98" y1="79.4" x2="-2.14" y2="79.4" xlink:href="#linear-gradient"/><linearGradient id="linear-gradient-4" x1="235.98" y1="225.27" x2="-2.14" y2="225.27" xlink:href="#linear-gradient"/><linearGradient id="linear-gradient-5" x1="235.98" y1="152.33" x2="-2.14" y2="152.33" gradientUnits="userSpaceOnUse"><stop offset="0" stop-color="#ff3b65"/><stop offset="0.61" stop-color="#f9597c"/><stop offset="1" stop-color="#d53c97"/></linearGradient></defs><g id="Layer_2" data-name="Layer 2"><g id="Layer_1-2" data-name="Layer 1"><path class="cls-1" d="M1126,57.76c47.08,0,77.26,36.81,67.31,94.17-10.28,57.36-53.71,95.49-100.46,95.49-28.85,0-47.09-14.26-55.71-29.18l-13.23,75.69A37.79,37.79,0,0,1,986.7,325.2H975.07a2.83,2.83,0,0,1-2.79-3.32l45.56-258.79a2.82,2.82,0,0,1,2.79-2.34h41a2.82,2.82,0,0,1,2.78,3.32l-4.06,23.2A88.34,88.34,0,0,1,1126,57.76Zm-19.23,40.79c-24.87,0-52,19.23-58,54-6.3,34.82,13.59,54,38.79,54s52.06-19.9,58.36-54.71C1151.87,117.11,1132,98.55,1106.78,98.55Z"/><path class="cls-1" d="M1282.89,0h-41.07a2.75,2.75,0,0,0-2.7,2.27L1197,240.78a2.88,2.88,0,0,0,2.84,3.38h41.07a2.74,2.74,0,0,0,2.7-2.26L1285.73,3.39A2.89,2.89,0,0,0,1282.89,0Z"/><path class="cls-1" d="M1468.87,60.25h-40.63a2.89,2.89,0,0,0-2.84,2.38l-17.5,98.87c-5,29.55-24.23,45.48-49.13,45.48s-38.18-15.93-33.2-45.48l17.33-97.85a2.9,2.9,0,0,0-2.85-3.4h-40.62a2.86,2.86,0,0,0-2.82,2.37L1278.1,168.14c-6.76,38.07,6.33,63.29,31.69,73.37l.19.09.54.19a64.4,64.4,0,0,0,6.6,2.12c16.51,4.7,43,7.42,78.52-13.42l-1.77,10.31a2.87,2.87,0,0,0,2.83,3.36h40.65a2.89,2.89,0,0,0,2.84-2.37L1471.7,63.63A2.88,2.88,0,0,0,1468.87,60.25Z"/><path class="cls-1" d="M1557,57.26c-44.49,0-74.7,22.91-74.7,55.45,0,59.75,91.29,50.45,91.29,80.33,0,13-14.27,18.92-30.87,18.92-18.37,0-29.44-9.35-29.65-23.11a2.84,2.84,0,0,0-2.86-2.78h-39.62a2.88,2.88,0,0,0-2.88,2.54c-3.44,34.5,28.59,58.54,71.69,58.54,45.15,0,79-20.58,79-55.44,0-57.1-90.63-49.46-90.63-80.33,0-11.62,11.29-18.93,27.22-18.93,18.37,0,28.85,9,29,22.76a2.86,2.86,0,0,0,2.87,2.81h37.5a2.88,2.88,0,0,0,2.89-2.68C1629.24,81.24,1600.7,57.26,1557,57.26Z"/><path class="cls-1" d="M350.65,82.53H325.41V62.93h25.24V0h23.58V62.93H424v19.6H374.23V195.1c0,22.25,7.63,29.22,28.55,29.22H424v19.93H399.13c-31.55,0-48.48-12.95-48.48-49.15Z"/><path class="cls-1" d="M447.91,62.93h23.25V244.25H447.91Z"/><path class="cls-1" d="M761.26,140.64c0-40.18-20.92-60.77-53.13-60.77C675.25,79.87,652,101.78,652,146v98.3H629.09V140.64c0-40.18-21.25-60.77-53.46-60.77-33.21,0-56.12,21.91-56.12,66.08v98.3H496.26V62.93h23.25V94.15c11.62-22.92,34.53-34.54,60.1-34.54,30.22,0,56.12,14.28,67.08,44.5,10-29.56,36.53-44.5,65.42-44.5,40.18,0,72.06,25.24,72.06,78.37V244.25H761.26Z"/><path class="cls-1" d="M891.66,246.9c-51.47,0-89-35.86-89-93.31,0-57.78,36.86-93.31,89-93.31,53.14,0,85.68,37.85,85.68,84a160.11,160.11,0,0,1-.66,18.27H826.25c2,42.5,31.54,64.75,65.41,64.75,30.89,0,51.81-16.27,58.45-40.51h24.57C966.38,221,937.16,246.9,891.66,246.9ZM826.25,143.63H953.76c1-42.18-29.55-63.43-63.09-63.43C857.79,80.2,828.9,101.45,826.25,143.63Z"/><path class="cls-1" d="M445.1,24.12,449.21,0h23l-4.11,24.12Z"/><g class="cls-2"><path class="cls-3" d="M189.14,152.33a94.39,94.39,0,0,0-33.09-71.77q-1.62-.51-3.27-1a74.89,74.89,0,0,0-19.42,8.27,75.19,75.19,0,0,1,0,128.93,74.53,74.53,0,0,0,19.42,8.26c1.1-.29,2.19-.61,3.27-.95A94.4,94.4,0,0,0,189.14,152.33Z"/><path class="cls-4" d="M154.47,79.21l0,0-1.66.41C153.34,79.46,153.91,79.35,154.47,79.21Z"/><path class="cls-3" d="M19.29,152.33A75.42,75.42,0,0,1,71.92,80.54,94.39,94.39,0,0,1,114,59.77a94.57,94.57,0,1,0,0,185.12,94.29,94.29,0,0,1-42-20.77A75.41,75.41,0,0,1,19.29,152.33Z"/><path class="cls-5" d="M152.78,225.06c.55.15,1.11.28,1.66.42l0,0C153.91,225.32,153.34,225.21,152.78,225.06Z"/></g><path class="cls-6" d="M228,152.33a94.38,94.38,0,0,0-33.12-71.79,75.41,75.41,0,0,0-42.05-.94,75.27,75.27,0,0,1,0,145.46,75.16,75.16,0,0,0,42.05-.94A94.35,94.35,0,0,0,228,152.33Z"/><path class="cls-6" d="M110.73,224.12a75.28,75.28,0,0,1,0-143.58,94.39,94.39,0,0,1,42.05-20.77,94.57,94.57,0,1,0,0,185.12A94.29,94.29,0,0,1,110.73,224.12Z"/><path class="cls-1" d="M172.19,57.76a94.57,94.57,0,1,0,94.57,94.57A94.68,94.68,0,0,0,172.19,57.76Zm75.27,94.57a75.28,75.28,0,1,1-75.27-75.27A75.36,75.36,0,0,1,247.46,152.33Z"/></g></g></svg>
